<?xml version="1.0" standalone="no"?>
<!DOCTYPE svg PUBLIC "-//W3C//DTD SVG 20010904//EN"
 "http://www.w3.org/TR/2001/REC-SVG-20010904/DTD/svg10.dtd">
<svg version="1.0" xmlns="http://www.w3.org/2000/svg"
 width="1000.000000pt" height="1000.000000pt" viewBox="0 0 1000.000000 1000.000000"
 preserveAspectRatio="xMidYMid meet">
<metadata>
Created by potrace 1.14, written by Peter Selinger 2001-2017
</metadata>
<g transform="translate(0.000000,1000.000000) scale(0.100000,-0.100000)"
fill="#000000" stroke="none">
<path d="M4341 8237 c-12 -16 -8 -131 9 -227 25 -149 34 -237 34 -365 0 -132
-2 -145 -32 -233 -18 -51 -32 -103 -32 -117 0 -13 -4 -26 -9 -29 -5 -4 -16
-26 -24 -51 -24 -69 -74 -135 -108 -142 -16 -3 -29 -11 -29 -19 0 -56 -124 27
-168 112 -24 48 -69 94 -91 94 -15 0 -101 90 -101 106 0 4 -20 39 -44 78 -24
39 -51 88 -59 108 -9 21 -30 52 -47 70 -49 52 -90 109 -90 126 0 27 -145 157
-192 172 -24 8 -56 24 -71 37 -15 12 -44 25 -65 28 -20 4 -57 15 -82 25 -25
10 -63 22 -85 25 -22 4 -49 12 -60 18 -33 18 -266 19 -300 1 -19 -10 -32 -11
-39 -4 -17 17 -44 11 -51 -10 -5 -14 -15 -20 -37 -20 -21 0 -31 -6 -35 -19 -3
-12 -17 -21 -40 -26 -43 -8 -73 -25 -73 -42 0 -7 -3 -12 -7 -11 -17 3 -69 -16
-88 -32 -11 -10 -38 -27 -60 -38 -52 -26 -165 -141 -165 -167 0 -7 -21 -35
-48 -62 -26 -27 -56 -66 -67 -88 -11 -22 -28 -52 -37 -66 -10 -15 -25 -54 -34
-88 -8 -34 -26 -86 -40 -116 -13 -31 -24 -64 -24 -74 0 -10 -11 -52 -24 -92
-31 -95 -50 -264 -44 -378 5 -76 11 -101 42 -168 51 -107 52 -109 81 -188 47
-128 145 -294 188 -320 16 -9 41 -35 57 -56 32 -45 76 -80 136 -109 23 -11 49
-32 59 -46 9 -14 42 -37 73 -51 64 -29 212 -122 212 -133 0 -10 120 -80 137
-80 8 0 29 -11 47 -25 18 -14 36 -25 40 -25 8 0 204 -95 231 -112 11 -7 65
-42 120 -78 55 -36 114 -72 130 -80 32 -15 106 -71 143 -108 13 -13 47 -39 75
-58 29 -20 59 -43 68 -52 37 -39 97 -90 139 -119 66 -45 300 -293 300 -317 0
-5 8 -20 19 -34 10 -15 21 -45 25 -67 4 -21 15 -53 23 -69 52 -101 71 -338 39
-479 -15 -65 -89 -232 -108 -243 -5 -3 -31 -51 -58 -105 -27 -54 -75 -132
-107 -171 -33 -40 -70 -89 -83 -108 -53 -79 -238 -272 -350 -366 -88 -74 -215
-164 -230 -164 -5 0 -13 -6 -17 -12 -12 -19 -194 -108 -220 -108 -13 0 -23 -4
-23 -10 0 -5 -8 -10 -19 -10 -10 0 -24 -7 -31 -15 -10 -13 -15 -13 -21 -3 -6
10 -17 10 -48 2 -36 -10 -46 -8 -107 23 -37 18 -73 33 -80 33 -6 0 -37 12 -68
26 -50 23 -65 25 -139 20 -146 -8 -193 -21 -319 -87 -50 -26 -76 2 -99 108
-10 48 -24 99 -29 113 -6 14 -13 38 -16 54 -7 39 -49 114 -87 155 -46 49 -184
111 -247 111 -27 0 -51 4 -54 9 -4 5 -15 53 -26 107 -31 151 -65 203 -149 232
-46 16 -111 16 -111 0 0 -7 -7 -21 -15 -32 -13 -18 -15 -17 -45 15 -17 19 -47
57 -66 86 -40 59 -196 211 -258 251 -64 41 -105 62 -121 62 -8 0 -40 11 -71
25 -31 14 -61 25 -66 25 -5 0 -18 -20 -29 -45 -11 -24 -24 -47 -30 -50 -6 -4
-7 -29 -3 -64 4 -40 2 -66 -7 -82 -8 -14 -16 -80 -20 -164 -7 -132 -6 -145 18
-225 24 -80 26 -101 30 -345 2 -143 7 -263 12 -268 5 -5 32 5 65 24 l55 33 11
71 c22 131 113 381 162 443 33 41 99 82 133 82 14 0 32 -13 47 -33 27 -35 146
-251 167 -305 12 -30 32 -58 91 -132 11 -14 20 -33 20 -42 0 -9 21 -57 47
-105 26 -48 58 -110 72 -138 14 -27 36 -54 47 -59 15 -7 23 -22 27 -47 4 -34
56 -119 125 -204 34 -41 328 -342 345 -352 8 -4 26 -27 41 -51 15 -24 35 -46
44 -49 9 -4 44 -25 77 -49 74 -52 201 -127 270 -159 36 -17 69 -25 108 -25 31
0 78 -5 106 -11 34 -7 61 -7 87 0 23 6 42 7 49 1 22 -19 165 -27 285 -17 229
20 455 74 589 140 218 109 340 183 370 226 11 15 31 33 45 40 14 8 28 21 31
30 3 9 29 41 57 72 29 30 81 87 114 125 150 169 171 192 209 226 43 39 134
206 155 285 6 24 24 71 40 105 17 35 30 73 30 85 0 13 11 56 25 97 14 41 25
92 25 114 0 22 4 61 9 88 23 120 33 276 33 495 -1 197 -4 252 -21 336 -12 56
-21 114 -21 130 -1 87 -85 306 -189 488 -41 72 -112 175 -121 175 -4 0 -22 24
-39 53 -69 115 -180 241 -263 298 -51 35 -102 78 -179 153 -15 14 -44 34 -65
43 -22 10 -55 30 -75 46 -20 15 -43 27 -52 27 -8 0 -28 10 -44 23 -26 22 -53
32 -155 58 -24 6 -56 16 -73 23 -53 22 -98 37 -170 55 -39 10 -85 26 -103 35
-18 9 -58 21 -90 27 -55 9 -163 40 -327 94 -44 14 -91 28 -105 32 -14 3 -34
14 -45 24 -12 10 -36 22 -55 25 -19 3 -62 19 -96 35 -33 16 -65 29 -71 29 -12
0 -53 43 -53 56 0 5 -17 23 -37 39 -105 88 -135 136 -159 261 -31 165 -39 400
-17 504 7 30 16 84 21 120 11 72 87 242 153 340 35 52 119 140 133 140 4 0 36
20 72 44 35 25 89 57 120 71 52 24 60 25 127 16 203 -27 287 -79 388 -242 26
-41 62 -99 81 -129 19 -30 46 -75 60 -100 14 -25 35 -54 47 -64 12 -11 21 -23
21 -29 0 -5 9 -21 19 -36 11 -15 23 -39 26 -54 4 -15 11 -27 17 -27 5 0 14
-12 21 -27 7 -16 32 -59 56 -96 37 -58 52 -72 96 -92 29 -12 86 -28 126 -34
41 -7 97 -16 124 -21 29 -5 71 -4 99 1 26 5 52 6 57 3 10 -6 117 23 134 36 6
4 42 18 80 30 74 24 104 41 145 77 14 13 28 24 32 24 5 1 12 2 18 3 5 0 34 30
63 66 30 36 78 90 107 120 74 78 83 100 75 171 -4 33 -18 81 -32 107 -60 111
-72 138 -73 155 0 9 -20 59 -44 110 -25 50 -56 135 -69 187 -21 81 -71 258
-133 470 -9 30 -19 66 -22 79 -8 29 -25 37 -41 18z m-1295 -268 c16 -6 48 -20
71 -30 22 -10 63 -23 90 -30 84 -20 175 -70 233 -129 70 -71 160 -198 230
-325 31 -55 74 -125 96 -155 22 -30 57 -80 76 -111 49 -76 63 -94 134 -166 70
-70 110 -90 209 -104 39 -5 105 -14 148 -19 43 -6 82 -8 88 -4 12 7 141 35
146 31 1 -2 -26 -33 -60 -69 -61 -65 -156 -128 -192 -128 -10 0 -42 -12 -71
-26 -48 -23 -118 -35 -219 -36 -33 0 -217 31 -257 44 -55 17 -92 54 -126 129
-16 37 -70 126 -118 199 -49 73 -112 170 -140 215 -27 45 -61 96 -75 112 -13
16 -37 49 -52 74 -50 78 -155 146 -257 167 -156 32 -160 32 -240 4 -41 -14
-102 -44 -135 -67 -33 -22 -72 -46 -86 -53 -85 -44 -211 -196 -259 -312 -12
-30 -28 -66 -35 -80 -7 -14 -18 -45 -25 -70 -6 -25 -19 -53 -27 -62 -8 -9 -19
-50 -23 -90 -5 -40 -13 -86 -19 -101 -16 -40 -14 -282 3 -418 15 -117 37 -196
80 -292 14 -28 23 -54 20 -56 -7 -8 -111 94 -124 122 -7 15 -16 27 -20 27 -4
0 -11 12 -14 26 -4 15 -26 54 -49 86 -23 33 -50 72 -60 87 -22 33 -87 238 -87
275 0 15 -5 48 -11 73 -19 73 11 333 58 493 70 244 91 284 241 437 113 115
188 174 260 202 17 8 32 19 32 27 0 26 93 87 180 118 29 10 356 -3 386 -15z
m1444 -392 c0 -18 6 -44 14 -58 7 -14 23 -59 35 -100 13 -41 50 -127 82 -193
33 -65 58 -125 55 -132 -3 -8 -33 -32 -67 -53 -53 -34 -73 -40 -139 -46 -83
-7 -190 9 -190 29 0 6 12 29 27 51 14 21 36 66 48 99 12 34 30 79 40 101 23
53 65 239 65 291 0 22 3 44 6 47 13 12 24 -5 24 -36z m-1505 -1917 c18 -7 25
-15 21 -25 -8 -22 33 -35 111 -37 38 -2 69 -8 75 -15 6 -7 20 -13 33 -13 12 0
25 -3 29 -7 7 -8 58 -21 166 -43 30 -7 82 -21 115 -31 33 -11 74 -23 90 -28
17 -4 60 -26 97 -49 37 -22 78 -44 90 -48 13 -4 29 -15 36 -25 7 -11 18 -19
24 -19 6 0 27 -12 47 -27 20 -16 43 -32 52 -38 86 -53 255 -217 336 -327 23
-32 41 -47 50 -44 10 4 13 1 8 -13 -5 -18 11 -42 72 -111 13 -14 23 -28 23
-32 0 -4 19 -29 43 -55 23 -27 51 -68 62 -93 11 -24 30 -54 43 -67 41 -42 103
-189 122 -292 49 -259 48 -248 49 -581 1 -118 -3 -253 -8 -300 -6 -47 -15
-130 -21 -185 -13 -110 -27 -162 -106 -372 -65 -171 -93 -218 -215 -348 -51
-55 -115 -127 -143 -161 -183 -219 -235 -268 -382 -356 -50 -30 -58 -34 -109
-59 -27 -13 -61 -33 -75 -45 -24 -20 -87 -40 -213 -69 -32 -7 -67 -21 -77 -30
-16 -15 -22 -16 -35 -5 -13 11 -23 10 -58 -1 -23 -7 -55 -14 -72 -16 -124 -10
-159 -15 -171 -28 -15 -15 -42 -13 -119 8 -22 6 -62 12 -90 13 -74 3 -243 22
-295 33 -25 5 -73 24 -106 43 -108 58 -174 100 -174 108 0 5 -21 18 -47 31
-28 13 -78 54 -121 98 -40 42 -77 81 -83 86 -7 6 -28 28 -48 49 -20 22 -80 85
-134 139 -69 70 -120 135 -174 221 -92 144 -172 285 -208 363 -14 32 -48 93
-74 138 -27 44 -59 103 -73 130 -13 28 -59 119 -102 203 -43 84 -76 156 -73
158 3 3 23 -19 46 -49 22 -30 52 -64 67 -76 25 -20 67 -66 160 -177 22 -27 46
-65 54 -84 22 -57 148 -205 316 -375 94 -93 109 -104 185 -135 64 -25 116 -37
225 -51 79 -9 147 -20 153 -23 17 -11 295 -8 324 3 16 6 41 11 56 11 16 0 59
11 96 25 37 14 94 28 128 32 66 6 159 49 229 104 20 16 42 29 48 29 7 0 47 27
89 60 43 33 83 60 88 60 6 0 26 15 44 33 19 17 43 39 54 47 12 8 49 47 84 85
34 39 84 93 110 120 113 118 183 214 328 445 75 118 164 303 174 360 26 148
28 214 13 360 -9 80 -20 153 -25 162 -5 10 -14 40 -19 68 -15 81 -68 195 -121
261 -27 34 -49 67 -49 74 0 17 -66 75 -85 75 -8 0 -20 8 -27 19 -29 40 -198
190 -210 186 -8 -3 -32 12 -54 33 -23 20 -70 53 -105 72 -35 18 -107 61 -159
95 -171 110 -397 238 -440 249 -14 3 -36 14 -49 25 -29 22 -20 45 15 37 17 -5
24 -2 24 9 0 18 9 19 45 5z m-2285 -1894 c0 -3 -4 -8 -10 -11 -5 -3 -10 -1
-10 4 0 6 5 11 10 11 6 0 10 -2 10 -4z m171 -60 c52 -44 169 -190 169 -211 0
-6 -15 -16 -33 -23 -44 -16 -127 -92 -127 -117 0 -11 -5 -27 -10 -35 -9 -13
-11 -13 -19 0 -22 33 -88 -96 -77 -151 7 -36 -11 -89 -28 -83 -16 6 -26 -40
-32 -141 -5 -69 -9 -84 -20 -72 -14 14 -34 379 -28 522 8 204 20 248 81 303
53 47 76 48 124 8z m279 -187 c6 -10 9 -19 6 -19 -9 0 -36 31 -36 41 0 14 18
1 30 -22z m278 -80 c31 -11 41 -27 62 -111 17 -64 9 -78 -20 -39 -14 18 -47
57 -73 86 -62 69 -51 93 31 64z m242 -362 c22 6 159 -52 177 -75 32 -39 115
-265 106 -288 -7 -20 -23 -17 -23 4 -1 23 -115 145 -138 147 -26 2 -42 14 -36
28 2 7 -27 51 -66 99 -72 90 -82 105 -54 90 9 -5 25 -7 34 -5z m869 -460 c51
-22 32 -25 -94 -17 -16 1 -14 4 10 15 38 18 46 18 84 2z"/>
<path d="M5620 8231 c-5 -11 -10 -29 -10 -40 0 -11 -6 -38 -14 -58 -18 -47
-101 -336 -133 -463 -13 -52 -44 -137 -69 -187 -24 -51 -44 -101 -44 -110 -1
-17 -13 -44 -73 -155 -14 -26 -28 -74 -32 -107 -8 -71 1 -93 75 -171 29 -30
77 -84 107 -120 29 -36 58 -66 63 -66 6 -1 13 -2 18 -3 4 0 18 -11 32 -24 41
-36 71 -53 145 -77 39 -12 75 -26 80 -30 17 -13 124 -42 134 -36 5 3 31 2 57
-3 28 -5 70 -6 99 -1 27 5 83 14 124 21 40 6 97 22 126 34 44 20 59 34 96 92
24 37 49 80 56 96 7 15 16 27 21 27 6 0 13 12 17 27 3 15 15 39 26 54 10 15
19 31 19 36 0 6 9 18 21 29 12 10 33 39 47 64 14 25 41 70 60 100 19 30 55 88
81 129 101 163 185 215 388 242 67 9 75 8 127 -16 31 -14 85 -46 120 -71 36
-24 68 -44 72 -44 14 0 98 -88 133 -140 66 -98 142 -268 153 -340 5 -36 14
-90 21 -120 22 -104 14 -339 -17 -504 -24 -125 -54 -173 -159 -261 -20 -16
-37 -35 -37 -41 0 -12 -42 -54 -55 -54 -5 0 -36 -13 -69 -29 -34 -16 -77 -32
-96 -35 -19 -3 -43 -15 -55 -25 -11 -10 -31 -21 -45 -24 -14 -4 -61 -18 -105
-32 -164 -54 -272 -85 -327 -94 -32 -6 -72 -18 -90 -27 -18 -9 -64 -25 -103
-35 -72 -18 -117 -33 -170 -55 -16 -7 -49 -17 -72 -23 -103 -26 -130 -36 -156
-58 -16 -13 -36 -23 -44 -23 -9 0 -32 -12 -52 -27 -20 -16 -53 -36 -75 -46
-21 -9 -50 -29 -65 -43 -77 -75 -128 -118 -179 -153 -83 -57 -194 -183 -263
-298 -17 -29 -35 -53 -39 -53 -9 0 -80 -103 -121 -175 -104 -182 -188 -401
-189 -488 0 -16 -9 -74 -21 -130 -34 -168 -28 -622 12 -831 5 -27 9 -66 9 -88
0 -22 11 -73 25 -114 14 -41 25 -84 25 -97 0 -12 13 -50 30 -85 16 -34 34 -81
40 -105 21 -79 112 -246 155 -285 38 -34 59 -57 209 -226 33 -38 85 -95 114
-125 28 -31 54 -63 57 -72 3 -9 17 -22 31 -30 14 -7 34 -25 45 -40 30 -43 152
-117 370 -226 134 -66 360 -120 589 -140 120 -10 263 -2 285 17 7 6 26 5 49
-1 26 -7 53 -7 87 0 28 6 75 11 106 11 39 0 72 8 108 25 69 32 196 107 270
159 33 24 68 45 77 49 9 3 29 25 44 49 15 24 33 47 41 51 17 10 311 311 345
352 69 85 121 170 125 204 4 25 12 40 27 47 11 5 33 32 47 59 14 28 46 90 72
138 26 48 47 96 47 105 0 9 9 28 20 42 59 74 79 102 91 132 21 54 140 270 167
306 15 19 33 32 47 32 34 0 100 -41 133 -82 49 -62 140 -312 162 -443 l11 -71
55 -33 c33 -19 60 -29 65 -24 5 5 10 125 12 268 4 244 6 265 30 345 24 80 25
93 18 225 -4 84 -12 150 -20 164 -9 16 -11 42 -7 82 4 35 3 60 -3 64 -6 3 -19
26 -30 50 -11 25 -24 45 -29 45 -5 0 -35 -11 -66 -25 -31 -14 -63 -25 -71 -25
-16 0 -57 -21 -121 -62 -62 -40 -218 -192 -258 -251 -19 -29 -49 -67 -66 -86
-30 -32 -32 -33 -45 -15 -8 11 -15 25 -15 32 0 16 -65 16 -111 0 -84 -29 -118
-81 -149 -232 -11 -54 -22 -102 -26 -107 -3 -5 -27 -9 -54 -9 -63 0 -201 -62
-247 -111 -38 -41 -80 -116 -87 -155 -3 -16 -10 -40 -16 -54 -5 -14 -19 -65
-29 -113 -23 -106 -49 -134 -99 -108 -126 66 -173 79 -319 87 -74 5 -89 3
-139 -20 -31 -14 -62 -26 -68 -26 -7 0 -43 -15 -80 -33 -61 -31 -71 -33 -107
-23 -31 8 -42 8 -48 -2 -6 -10 -11 -10 -21 3 -7 8 -21 15 -31 15 -11 0 -19 5
-19 10 0 6 -10 10 -22 10 -27 0 -209 89 -221 108 -4 6 -12 12 -17 12 -15 0
-142 90 -230 164 -112 94 -297 287 -350 366 -13 19 -50 68 -83 108 -32 39 -80
117 -107 171 -27 54 -53 102 -58 105 -19 11 -93 178 -108 243 -32 141 -13 378
39 479 8 16 19 48 23 69 4 22 15 52 25 67 11 14 19 29 19 34 0 24 234 272 300
317 42 29 102 80 139 119 9 9 39 32 68 52 28 19 62 45 75 58 37 37 111 93 143
108 16 8 75 44 130 80 55 36 109 71 120 78 27 17 223 112 231 112 4 0 22 11
40 25 18 14 39 25 47 25 17 0 137 70 137 80 0 11 148 104 212 133 31 14 64 37
73 51 10 14 36 35 59 46 60 29 104 64 136 109 16 21 41 47 57 56 43 26 141
192 188 320 29 79 30 81 81 188 31 67 37 92 42 168 6 114 -13 283 -44 378 -13
40 -24 82 -24 92 0 10 -11 43 -24 74 -14 30 -32 82 -40 116 -9 34 -24 73 -34
88 -9 14 -26 44 -37 66 -11 22 -41 61 -67 88 -27 27 -48 55 -48 62 0 26 -113
141 -165 167 -22 11 -49 28 -60 38 -19 16 -71 35 -87 32 -5 -1 -8 4 -8 11 0
17 -30 34 -73 42 -23 5 -37 14 -40 26 -4 13 -14 19 -35 19 -22 0 -32 6 -37 20
-7 21 -34 27 -51 10 -7 -7 -20 -6 -39 4 -34 18 -267 17 -300 -1 -11 -6 -38
-14 -60 -18 -22 -3 -60 -15 -85 -25 -25 -10 -62 -21 -82 -25 -21 -3 -50 -16
-65 -28 -15 -13 -47 -29 -71 -37 -47 -15 -192 -145 -192 -172 0 -17 -41 -74
-90 -126 -17 -18 -38 -49 -47 -70 -8 -20 -35 -69 -59 -108 -24 -39 -44 -74
-44 -78 0 -16 -86 -106 -101 -106 -22 0 -67 -46 -91 -94 -44 -85 -168 -168
-168 -112 0 8 -13 16 -29 19 -34 7 -84 73 -108 142 -8 25 -19 47 -24 51 -5 3
-9 16 -9 29 0 14 -14 66 -32 117 -30 88 -32 101 -32 233 0 128 9 216 34 365
17 95 21 212 9 226 -16 19 -26 17 -39 -5z m1775 -266 c53 -26 125 -83 125 -99
0 -8 15 -19 33 -27 71 -28 146 -87 259 -202 150 -153 171 -193 241 -437 47
-160 77 -420 58 -493 -6 -25 -11 -58 -11 -73 0 -37 -65 -242 -87 -275 -10 -15
-37 -54 -60 -87 -23 -32 -45 -71 -49 -86 -3 -14 -10 -26 -14 -26 -4 0 -13 -12
-20 -27 -13 -28 -117 -130 -124 -122 -3 2 6 28 20 56 43 96 65 175 80 292 17
136 19 378 3 418 -6 15 -14 61 -19 101 -4 40 -15 81 -23 90 -8 9 -21 37 -27
62 -7 25 -18 56 -25 70 -7 14 -23 50 -35 80 -48 116 -174 268 -259 312 -14 7
-53 31 -86 53 -33 23 -94 53 -135 67 -80 28 -84 28 -240 -4 -102 -21 -207 -89
-257 -167 -15 -25 -39 -58 -52 -74 -14 -16 -48 -67 -75 -112 -28 -45 -91 -142
-140 -215 -48 -73 -102 -162 -118 -199 -34 -75 -71 -112 -126 -129 -40 -13
-224 -44 -257 -44 -101 1 -171 13 -219 36 -29 14 -61 26 -71 26 -36 0 -131 63
-192 128 -34 36 -61 67 -60 69 5 4 134 -24 146 -31 6 -4 45 -2 88 4 43 5 110
14 148 19 99 14 139 34 209 104 71 72 85 90 134 166 19 31 54 81 76 111 22 30
65 100 96 155 70 127 160 254 230 325 58 59 149 109 233 129 27 7 68 20 90 30
104 46 103 46 312 46 138 0 165 -3 200 -20z m-1855 -398 c0 -53 41 -238 65
-292 10 -22 28 -67 40 -101 12 -33 34 -78 48 -99 15 -22 27 -45 27 -51 0 -20
-107 -36 -190 -29 -66 6 -86 12 -139 46 -34 21 -64 45 -67 53 -3 7 22 67 55
132 32 66 69 152 82 193 12 41 28 86 35 100 8 14 14 40 14 57 0 17 3 34 6 37
14 14 24 -6 24 -46z m1520 -1912 c0 -11 7 -14 24 -9 35 8 44 -15 15 -37 -13
-11 -35 -22 -49 -25 -43 -11 -269 -139 -440 -249 -52 -34 -124 -77 -159 -95
-35 -19 -82 -52 -105 -72 -22 -21 -46 -36 -54 -33 -12 4 -181 -146 -210 -186
-7 -11 -19 -19 -27 -19 -19 0 -85 -58 -85 -75 0 -7 -22 -40 -49 -74 -53 -66
-106 -180 -121 -261 -5 -28 -14 -58 -19 -68 -19 -36 -41 -304 -31 -387 18
-154 29 -189 90 -310 126 -245 282 -474 431 -630 26 -27 76 -81 110 -120 35
-38 72 -77 84 -85 11 -8 35 -30 54 -47 18 -18 38 -33 44 -33 5 0 45 -27 88
-60 42 -33 82 -60 89 -60 6 0 28 -13 48 -29 70 -55 163 -98 229 -104 34 -4 91
-18 128 -32 37 -14 80 -25 96 -25 15 0 40 -5 56 -11 29 -11 307 -14 324 -3 6
3 74 14 153 23 109 14 161 26 225 51 76 31 91 42 185 135 168 170 294 318 316
375 8 19 32 57 54 84 93 111 135 157 160 177 15 12 45 46 67 76 23 30 43 52
46 49 3 -2 -30 -74 -73 -158 -43 -84 -89 -175 -102 -203 -14 -27 -46 -86 -73
-130 -26 -45 -60 -106 -74 -138 -36 -78 -116 -219 -208 -363 -54 -86 -105
-151 -174 -221 -54 -54 -114 -117 -134 -139 -20 -21 -41 -43 -48 -49 -6 -5
-43 -44 -83 -86 -43 -44 -93 -85 -120 -98 -27 -13 -48 -26 -48 -31 0 -8 -66
-50 -174 -108 -33 -19 -81 -38 -106 -43 -52 -11 -221 -30 -295 -33 -27 -1 -68
-7 -90 -13 -77 -21 -104 -23 -119 -8 -12 13 -47 18 -171 28 -16 2 -49 9 -72
16 -35 11 -45 12 -58 1 -13 -11 -19 -10 -35 5 -10 9 -45 23 -77 30 -126 29
-189 49 -213 69 -14 12 -48 32 -75 45 -51 25 -59 29 -109 59 -147 88 -199 137
-382 356 -28 34 -92 106 -143 161 -122 130 -150 177 -215 348 -79 210 -93 262
-106 372 -6 55 -15 138 -21 185 -5 47 -9 182 -8 300 1 333 0 322 49 581 19
103 81 250 122 292 13 13 32 43 43 67 11 25 39 66 63 93 23 26 42 51 42 55 0
4 10 18 23 32 61 69 77 93 72 111 -5 14 -2 17 8 13 9 -3 27 12 50 44 81 110
250 274 336 327 9 6 32 22 52 38 20 15 41 27 47 27 6 0 17 8 24 19 7 10 23 21
36 25 12 4 53 26 90 48 37 23 80 45 97 49 16 5 57 17 90 28 33 10 85 24 115
31 108 22 159 35 166 43 4 4 17 7 29 7 13 0 27 6 33 13 6 7 37 13 75 15 79 2
119 15 111 37 -4 10 2 18 17 24 35 14 49 13 49 -4z m2260 -1895 c0 -5 -2 -10
-4 -10 -3 0 -8 5 -11 10 -3 6 -1 10 4 10 6 0 11 -4 11 -10z m-67 -63 c61 -54
73 -98 81 -302 6 -143 -14 -508 -28 -522 -11 -12 -15 3 -20 72 -6 101 -16 147
-32 141 -17 -6 -35 47 -28 83 7 34 -13 97 -44 136 -19 24 -25 27 -33 15 -8
-13 -10 -13 -19 0 -5 8 -10 24 -10 35 0 25 -83 101 -127 117 -18 7 -33 17 -33
23 0 29 164 219 204 235 33 14 38 12 89 -33z m-379 -170 c-3 -8 -12 -18 -20
-21 -10 -4 -13 -2 -8 7 21 37 41 47 28 14z m-229 -88 c4 -5 -15 -34 -42 -64
-26 -29 -59 -68 -73 -86 -29 -39 -37 -25 -20 39 21 81 31 101 59 111 35 13 68
13 76 0z m-334 -446 c-39 -48 -69 -93 -67 -100 6 -14 -10 -26 -36 -28 -23 -2
-137 -124 -138 -147 0 -21 -16 -24 -23 -4 -9 23 74 249 106 288 19 23 155 81
177 75 10 -2 24 -1 31 4 30 18 17 -4 -50 -88z m-766 -378 c24 -11 26 -14 10
-15 -124 -8 -144 -5 -98 16 36 16 52 16 88 -1z"/>
<path d="M2812 6922 c-12 -4 -49 -38 -82 -76 -67 -78 -79 -120 -36 -128 22 -4
26 0 37 41 16 59 37 82 62 67 14 -9 20 -7 28 7 13 23 26 22 60 -7 15 -13 34
-26 41 -28 9 -3 4 -21 -15 -61 -33 -70 -38 -174 -10 -203 21 -20 75 -44 102
-44 17 0 20 -10 26 -82 5 -69 3 -92 -13 -137 -11 -30 -28 -61 -38 -68 -23 -16
-91 -17 -124 0 -81 41 -169 315 -143 445 8 42 7 52 -5 57 -8 3 -17 3 -20 0 -3
-3 0 -5 6 -5 7 0 12 -4 12 -10 0 -14 -27 -12 -33 3 -12 28 -34 -40 -29 -85 1
-3 6 -48 13 -100 20 -168 85 -326 150 -366 32 -20 88 -22 134 -6 22 7 52 14
66 14 30 0 71 53 86 111 13 48 -8 261 -27 280 -37 36 -63 48 -82 38 -14 -7
-24 -7 -34 2 -26 21 -8 70 62 167 13 17 14 28 7 45 -17 36 -64 87 -80 87 -9 0
-31 11 -49 25 -34 26 -36 27 -72 17z"/>
<path d="M7115 6905 c-16 -14 -37 -25 -47 -25 -17 0 -64 -50 -81 -87 -7 -17
-6 -28 7 -45 70 -97 88 -146 62 -167 -10 -9 -20 -9 -34 -2 -19 10 -45 -2 -82
-38 -19 -19 -40 -232 -27 -280 15 -58 56 -111 86 -111 14 0 44 -7 66 -14 46
-16 102 -14 134 6 65 40 130 198 150 366 7 52 12 97 13 100 5 45 -17 113 -29
85 -6 -15 -33 -17 -33 -3 0 6 5 10 12 10 6 0 9 2 6 5 -3 3 -12 3 -20 0 -12 -5
-13 -15 -5 -57 26 -130 -62 -404 -143 -445 -33 -17 -101 -16 -124 0 -10 7 -27
38 -38 68 -16 45 -18 68 -13 137 6 72 9 82 26 82 27 0 81 24 102 44 28 29 23
133 -10 203 -19 40 -24 58 -15 61 7 2 26 15 41 28 34 29 47 30 60 7 8 -14 14
-16 28 -7 25 15 46 -8 62 -67 11 -41 15 -45 37 -41 51 9 17 82 -90 188 -24 25
-70 25 -101 -1z"/>
<path d="M4973 6668 c-9 -11 -20 -111 -28 -258 -2 -25 4 -57 11 -72 8 -15 14
-47 14 -73 0 -43 1 -45 30 -45 29 0 30 2 30 45 0 26 6 58 14 73 14 28 14 44 1
217 -8 104 -16 125 -45 125 -10 0 -22 -6 -27 -12z"/>
<path d="M4972 6146 c3 -47 5 -51 28 -51 23 0 25 4 28 51 3 51 3 51 -28 51
-31 0 -31 0 -28 -51z"/>
<path d="M4811 6030 c-5 -16 -6 -30 -1 -30 4 0 13 14 19 30 5 17 6 30 1 30 -4
0 -13 -13 -19 -30z"/>
<path d="M5171 6030 c6 -16 15 -30 19 -30 5 0 4 14 -1 30 -6 17 -15 30 -19 30
-5 0 -4 -13 1 -30z"/>
<path d="M4979 5953 c0 -10 -2 -46 -4 -80 l-4 -63 29 0 29 0 -4 63 c-2 34 -4
70 -4 80 -1 10 -9 17 -21 17 -12 0 -20 -7 -21 -17z m31 -3 c0 -5 -4 -10 -10
-10 -5 0 -10 5 -10 10 0 6 5 10 10 10 6 0 10 -4 10 -10z"/>
<path d="M4776 5945 c-9 -26 -7 -32 5 -12 6 10 9 21 6 23 -2 3 -7 -2 -11 -11z"/>
<path d="M5210 5955 c0 -5 5 -17 10 -25 5 -8 10 -10 10 -5 0 6 -5 17 -10 25
-5 8 -10 11 -10 5z"/>
<path d="M4732 5869 c-10 -16 -10 -27 0 -55 6 -19 15 -34 19 -34 13 0 22 -161
11 -184 -6 -11 -18 -38 -26 -59 -13 -33 -19 -38 -43 -35 -19 2 -29 10 -31 23
-6 29 -20 41 -33 28 -7 -7 -8 -24 -4 -42 8 -38 53 -90 63 -74 4 6 18 13 32 14
14 3 34 18 48 39 23 33 24 41 19 153 -3 68 -10 124 -17 132 -6 8 -9 19 -5 25
8 13 -4 90 -13 90 -4 0 -13 -9 -20 -21z"/>
<path d="M5235 5850 c-4 -21 -4 -44 0 -50 4 -6 1 -17 -5 -25 -7 -8 -14 -64
-17 -132 -5 -112 -4 -120 19 -153 14 -21 34 -36 48 -39 14 -1 28 -8 32 -14 10
-16 55 36 63 74 4 18 3 35 -4 42 -13 13 -27 1 -33 -28 -2 -13 -12 -21 -31 -23
-24 -3 -30 2 -43 35 -8 21 -20 48 -26 59 -11 23 -2 184 11 184 4 0 13 15 19
34 10 28 10 39 0 55 -18 30 -25 26 -33 -19z"/>
<path d="M4974 5774 c3 -9 6 -21 6 -27 0 -7 4 -6 10 3 9 13 11 13 20 0 6 -9
10 -10 10 -3 0 6 3 18 6 27 5 13 -1 16 -26 16 -25 0 -31 -3 -26 -16z"/>
<path d="M4975 5712 c-8 -8 -6 -106 3 -117 4 -5 15 -11 25 -11 21 -2 29 27 25
86 -3 37 -6 44 -26 45 -12 1 -24 -1 -27 -3z"/>
<path d="M4644 5424 c5 -11 19 -47 32 -82 13 -35 31 -73 38 -85 8 -12 22 -45
31 -72 21 -66 42 -80 91 -59 21 9 57 14 83 12 46 -3 46 -3 49 31 4 39 -12 61
-30 43 -7 -7 -33 -12 -59 -12 -26 0 -51 -4 -54 -10 -14 -22 -27 -5 -78 103
-37 77 -62 118 -82 131 -27 18 -28 18 -21 0z"/>
<path d="M5327 5417 c-15 -12 -49 -69 -77 -129 -48 -103 -61 -120 -75 -98 -3
6 -28 10 -54 10 -26 0 -52 5 -59 12 -18 18 -34 -4 -30 -43 3 -34 3 -34 49 -31
26 2 62 -3 83 -12 49 -21 70 -7 91 59 9 27 23 59 30 71 15 23 76 176 72 181
-2 1 -15 -8 -30 -20z"/>
</g>
</svg>
